<svg xmlns="http://www.w3.org/2000/svg" version="1.1" width = "134" height = "134" viewBox = "-1 -1 134 134" preserveAspectRatio = "none" >
<rect x="0" y="0" width="132" height="132" style="fill:rgb(255,255,255);stroke:rgb(255,255,255)stroke-width:5%" />
<rect x="63.5" y="50" width="1" height="1" style="fill:rgb(63,63,127);stroke:rgb(63,63,127)stroke-width:5%" />
<rect x="63.5" y="51" width="1" height="0.99999619" style="fill:rgb(63,63,127);stroke:rgb(63,63,127)stroke-width:5%" />
<rect x="63.5" y="52" width="1" height="1.0000038" style="fill:rgb(63,63,127);stroke:rgb(63,63,127)stroke-width:5%" />
<rect x="63.5" y="53" width="1" height="1" style="fill:rgb(63,63,127);stroke:rgb(63,63,127)stroke-width:5%" />
<rect x="63.5" y="54" width="1" height="1.0000038" style="fill:rgb(63,63,127);stroke:rgb(63,63,127)stroke-width:5%" />
<rect x="63.5" y="55" width="1" height="0.99999619" style="fill:rgb(63,63,127);stroke:rgb(63,63,127)stroke-width:5%" />
<rect x="63.5" y="56" width="1" height="1" style="fill:rgb(63,63,127);stroke:rgb(63,63,127)stroke-width:5%" />
<rect x="63.5" y="57" width="1" height="1" style="fill:rgb(63,63,127);stroke:rgb(63,63,127)stroke-width:5%" />
<rect x="63.5" y="58" width="1" height="1" style="fill:rgb(63,63,127);stroke:rgb(63,63,127)stroke-width:5%" />
<rect x="63.5" y="59" width="1" height="0.99999619" style="fill:rgb(63,63,127);stroke:rgb(63,63,127)stroke-width:5%" />
<rect x="63.5" y="60" width="1" height="1.0000038" style="fill:rgb(63,63,127);stroke:rgb(63,63,127)stroke-width:5%" />
<rect x="63.5" y="61" width="1" height="1" style="fill:rgb(63,63,127);stroke:rgb(63,63,127)stroke-width:5%" />
<rect x="63.5" y="62" width="1" height="1" style="fill:rgb(63,63,127);stroke:rgb(63,63,127)stroke-width:5%" />
<rect x="63.5" y="63" width="1" height="1" style="fill:rgb(63,63,127);stroke:rgb(63,63,127)stroke-width:5%" />
<rect x="63.5" y="64" width="1" height="1" style="fill:rgb(63,63,127);stroke:rgb(63,63,127)stroke-width:5%" />
<rect x="63.5" y="65" width="1" height="1" style="fill:rgb(63,63,127);stroke:rgb(63,63,127)stroke-width:5%" />
<rect x="63.5" y="66" width="1" height="1" style="fill:rgb(63,63,127);stroke:rgb(63,63,127)stroke-width:5%" />
<rect x="63.5" y="67" width="1" height="1" style="fill:rgb(63,63,127);stroke:rgb(63,63,127)stroke-width:5%" />
<rect x="63.5" y="68" width="1" height="1" style="fill:rgb(63,63,127);stroke:rgb(63,63,127)stroke-width:5%" />
<rect x="63.5" y="69" width="1" height="1" style="fill:rgb(63,63,127);stroke:rgb(63,63,127)stroke-width:5%" />
<rect x="63.5" y="70" width="1" height="1" style="fill:rgb(63,63,127);stroke:rgb(63,63,127)stroke-width:5%" />
<rect x="63.5" y="71" width="1" height="1" style="fill:rgb(63,63,127);stroke:rgb(63,63,127)stroke-width:5%" />
<rect x="63.5" y="72" width="1" height="1" style="fill:rgb(63,63,127);stroke:rgb(63,63,127)stroke-width:5%" />
<rect x="63.5" y="73" width="1" height="1" style="fill:rgb(63,63,127);stroke:rgb(63,63,127)stroke-width:5%" />
<rect x="63.5" y="74" width="1" height="1" style="fill:rgb(63,63,127);stroke:rgb(63,63,127)stroke-width:5%" />
<rect x="63.5" y="75" width="1" height="1" style="fill:rgb(63,63,127);stroke:rgb(63,63,127)stroke-width:5%" />
<rect x="63.5" y="76" width="1" height="1" style="fill:rgb(63,63,127);stroke:rgb(63,63,127)stroke-width:5%" />
<rect x="63.5" y="77" width="1" height="1.0000076" style="fill:rgb(63,63,127);stroke:rgb(63,63,127)stroke-width:5%" />
<rect x="63.5" y="78" width="1" height="0.99999237" style="fill:rgb(63,63,127);stroke:rgb(63,63,127)stroke-width:5%" />
<rect x="63.5" y="79" width="1" height="1" style="fill:rgb(63,63,127);stroke:rgb(63,63,127)stroke-width:5%" />
<rect x="63.5" y="80" width="1" height="1" style="fill:rgb(63,63,127);stroke:rgb(63,63,127)stroke-width:5%" />
<rect x="63.5" y="81" width="1" height="1" style="fill:rgb(63,63,127);stroke:rgb(63,63,127)stroke-width:5%" />
<rect x="64.5" y="50" width="1" height="1" style="fill:rgb(63,63,127);stroke:rgb(63,63,127)stroke-width:5%" />
<rect x="64.5" y="51" width="1" height="0.99999619" style="fill:rgb(63,63,127);stroke:rgb(63,63,127)stroke-width:5%" />
<rect x="64.5" y="52" width="1" height="1.0000038" style="fill:rgb(63,63,127);stroke:rgb(63,63,127)stroke-width:5%" />
<rect x="64.5" y="53" width="1" height="1" style="fill:rgb(63,63,127);stroke:rgb(63,63,127)stroke-width:5%" />
<rect x="64.5" y="54" width="1" height="1.0000038" style="fill:rgb(63,63,127);stroke:rgb(63,63,127)stroke-width:5%" />
<rect x="64.5" y="55" width="1" height="0.99999619" style="fill:rgb(63,63,127);stroke:rgb(63,63,127)stroke-width:5%" />
<rect x="64.5" y="56" width="1" height="1" style="fill:rgb(63,63,127);stroke:rgb(63,63,127)stroke-width:5%" />
<rect x="64.5" y="57" width="1" height="1" style="fill:rgb(63,63,127);stroke:rgb(63,63,127)stroke-width:5%" />
<rect x="64.5" y="58" width="1" height="1" style="fill:rgb(63,63,127);stroke:rgb(63,63,127)stroke-width:5%" />
<rect x="64.5" y="59" width="1" height="0.99999619" style="fill:rgb(63,63,127);stroke:rgb(63,63,127)stroke-width:5%" />
<rect x="64.5" y="60" width="1" height="1.0000038" style="fill:rgb(63,63,127);stroke:rgb(63,63,127)stroke-width:5%" />
<rect x="64.5" y="61" width="1" height="1" style="fill:rgb(63,63,127);stroke:rgb(63,63,127)stroke-width:5%" />
<rect x="64.5" y="62" width="1" height="1" style="fill:rgb(63,63,127);stroke:rgb(63,63,127)stroke-width:5%" />
<rect x="64.5" y="63" width="1" height="1" style="fill:rgb(63,63,127);stroke:rgb(63,63,127)stroke-width:5%" />
<rect x="64.5" y="64" width="1" height="1" style="fill:rgb(63,63,127);stroke:rgb(63,63,127)stroke-width:5%" />
<rect x="64.5" y="65" width="1" height="1" style="fill:rgb(63,63,127);stroke:rgb(63,63,127)stroke-width:5%" />
<rect x="64.5" y="66" width="1" height="1" style="fill:rgb(63,63,127);stroke:rgb(63,63,127)stroke-width:5%" />
<rect x="64.5" y="67" width="1" height="1" style="fill:rgb(63,63,127);stroke:rgb(63,63,127)stroke-width:5%" />
<rect x="64.5" y="68" width="1" height="1" style="fill:rgb(63,63,127);stroke:rgb(63,63,127)stroke-width:5%" />
<rect x="64.5" y="69" width="1" height="1" style="fill:rgb(63,63,127);stroke:rgb(63,63,127)stroke-width:5%" />
<rect x="64.5" y="70" width="1" height="1" style="fill:rgb(63,63,127);stroke:rgb(63,63,127)stroke-width:5%" />
<rect x="64.5" y="71" width="1" height="1" style="fill:rgb(63,63,127);stroke:rgb(63,63,127)stroke-width:5%" />
<rect x="64.5" y="72" width="1" height="1" style="fill:rgb(63,63,127);stroke:rgb(63,63,127)stroke-width:5%" />
<rect x="64.5" y="73" width="1" height="1" style="fill:rgb(63,63,127);stroke:rgb(63,63,127)stroke-width:5%" />
<rect x="64.5" y="74" width="1" height="1" style="fill:rgb(63,63,127);stroke:rgb(63,63,127)stroke-width:5%" />
<rect x="64.5" y="75" width="1" height="1" style="fill:rgb(63,63,127);stroke:rgb(63,63,127)stroke-width:5%" />
<rect x="64.5" y="76" width="1" height="1" style="fill:rgb(63,63,127);stroke:rgb(63,63,127)stroke-width:5%" />
<rect x="64.5" y="77" width="1" height="1.0000076" style="fill:rgb(63,63,127);stroke:rgb(63,63,127)stroke-width:5%" />
<rect x="64.5" y="78" width="1" height="0.99999237" style="fill:rgb(63,63,127);stroke:rgb(63,63,127)stroke-width:5%" />
<rect x="64.5" y="79" width="1" height="1" style="fill:rgb(63,63,127);stroke:rgb(63,63,127)stroke-width:5%" />
<rect x="64.5" y="80" width="1" height="1" style="fill:rgb(63,63,127);stroke:rgb(63,63,127)stroke-width:5%" />
<rect x="64.5" y="81" width="1" height="1" style="fill:rgb(63,63,127);stroke:rgb(63,63,127)stroke-width:5%" />
<rect x="65.5" y="50" width="1" height="1" style="fill:rgb(63,63,127);stroke:rgb(63,63,127)stroke-width:5%" />
<rect x="65.5" y="51" width="1" height="0.99999619" style="fill:rgb(63,63,127);stroke:rgb(63,63,127)stroke-width:5%" />
<rect x="65.5" y="52" width="1" height="1.0000038" style="fill:rgb(63,63,127);stroke:rgb(63,63,127)stroke-width:5%" />
<rect x="65.5" y="53" width="1" height="1" style="fill:rgb(63,63,127);stroke:rgb(63,63,127)stroke-width:5%" />
<rect x="65.5" y="54" width="1" height="1.0000038" style="fill:rgb(63,63,127);stroke:rgb(63,63,127)stroke-width:5%" />
<rect x="65.5" y="55" width="1" height="0.99999619" style="fill:rgb(63,63,127);stroke:rgb(63,63,127)stroke-width:5%" />
<rect x="65.5" y="56" width="1" height="1" style="fill:rgb(63,63,127);stroke:rgb(63,63,127)stroke-width:5%" />
<rect x="65.5" y="57" width="1" height="1" style="fill:rgb(63,63,127);stroke:rgb(63,63,127)stroke-width:5%" />
<rect x="65.5" y="58" width="1" height="1" style="fill:rgb(63,63,127);stroke:rgb(63,63,127)stroke-width:5%" />
<rect x="65.5" y="59" width="1" height="0.99999619" style="fill:rgb(63,63,127);stroke:rgb(63,63,127)stroke-width:5%" />
<rect x="65.5" y="60" width="1" height="1.0000038" style="fill:rgb(63,63,127);stroke:rgb(63,63,127)stroke-width:5%" />
<rect x="65.5" y="61" width="1" height="1" style="fill:rgb(63,63,127);stroke:rgb(63,63,127)stroke-width:5%" />
<rect x="65.5" y="62" width="1" height="1" style="fill:rgb(63,63,127);stroke:rgb(63,63,127)stroke-width:5%" />
<rect x="65.5" y="63" width="1" height="1" style="fill:rgb(63,63,127);stroke:rgb(63,63,127)stroke-width:5%" />
<rect x="65.5" y="64" width="1" height="1" style="fill:rgb(63,63,127);stroke:rgb(63,63,127)stroke-width:5%" />
<rect x="65.5" y="65" width="1" height="1" style="fill:rgb(63,63,127);stroke:rgb(63,63,127)stroke-width:5%" />
<rect x="65.5" y="66" width="1" height="1" style="fill:rgb(63,63,127);stroke:rgb(63,63,127)stroke-width:5%" />
<rect x="65.5" y="67" width="1" height="1" style="fill:rgb(63,63,127);stroke:rgb(63,63,127)stroke-width:5%" />
<rect x="65.5" y="68" width="1" height="1" style="fill:rgb(63,63,127);stroke:rgb(63,63,127)stroke-width:5%" />
<rect x="65.5" y="69" width="1" height="1" style="fill:rgb(63,63,127);stroke:rgb(63,63,127)stroke-width:5%" />
<rect x="65.5" y="70" width="1" height="1" style="fill:rgb(63,63,127);stroke:rgb(63,63,127)stroke-width:5%" />
<rect x="65.5" y="71" width="1" height="1" style="fill:rgb(63,63,127);stroke:rgb(63,63,127)stroke-width:5%" />
<rect x="65.5" y="72" width="1" height="1" style="fill:rgb(63,63,127);stroke:rgb(63,63,127)stroke-width:5%" />
<rect x="65.5" y="73" width="1" height="1" style="fill:rgb(63,63,127);stroke:rgb(63,63,127)stroke-width:5%" />
<rect x="65.5" y="74" width="1" height="1" style="fill:rgb(63,63,127);stroke:rgb(63,63,127)stroke-width:5%" />
<rect x="65.5" y="75" width="1" height="1" style="fill:rgb(63,63,127);stroke:rgb(63,63,127)stroke-width:5%" />
<rect x="65.5" y="76" width="1" height="1" style="fill:rgb(63,63,127);stroke:rgb(63,63,127)stroke-width:5%" />
<rect x="65.5" y="77" width="1" height="1.0000076" style="fill:rgb(63,63,127);stroke:rgb(63,63,127)stroke-width:5%" />
<rect x="65.5" y="78" width="1" height="0.99999237" style="fill:rgb(63,63,127);stroke:rgb(63,63,127)stroke-width:5%" />
<rect x="65.5" y="79" width="1" height="1" style="fill:rgb(63,63,127);stroke:rgb(63,63,127)stroke-width:5%" />
<rect x="65.5" y="80" width="1" height="1" style="fill:rgb(63,63,127);stroke:rgb(63,63,127)stroke-width:5%" />
<rect x="65.5" y="81" width="1" height="1" style="fill:rgb(63,63,127);stroke:rgb(63,63,127)stroke-width:5%" />
<rect x="66.5" y="50" width="1" height="1" style="fill:rgb(63,63,127);stroke:rgb(63,63,127)stroke-width:5%" />
<rect x="66.5" y="51" width="1" height="0.99999619" style="fill:rgb(63,63,127);stroke:rgb(63,63,127)stroke-width:5%" />
<rect x="66.5" y="52" width="1" height="1.0000038" style="fill:rgb(63,63,127);stroke:rgb(63,63,127)stroke-width:5%" />
<rect x="66.5" y="53" width="1" height="1" style="fill:rgb(63,63,127);stroke:rgb(63,63,127)stroke-width:5%" />
<rect x="66.5" y="54" width="1" height="1.0000038" style="fill:rgb(63,63,127);stroke:rgb(63,63,127)stroke-width:5%" />
<rect x="66.5" y="55" width="1" height="0.99999619" style="fill:rgb(63,63,127);stroke:rgb(63,63,127)stroke-width:5%" />
<rect x="66.5" y="56" width="1" height="1" style="fill:rgb(63,63,127);stroke:rgb(63,63,127)stroke-width:5%" />
<rect x="66.5" y="57" width="1" height="1" style="fill:rgb(63,63,127);stroke:rgb(63,63,127)stroke-width:5%" />
<rect x="66.5" y="58" width="1" height="1" style="fill:rgb(63,63,127);stroke:rgb(63,63,127)stroke-width:5%" />
<rect x="66.5" y="59" width="1" height="0.99999619" style="fill:rgb(63,63,127);stroke:rgb(63,63,127)stroke-width:5%" />
<rect x="66.5" y="60" width="1" height="1.0000038" style="fill:rgb(63,63,127);stroke:rgb(63,63,127)stroke-width:5%" />
<rect x="66.5" y="61" width="1" height="1" style="fill:rgb(63,63,127);stroke:rgb(63,63,127)stroke-width:5%" />
<rect x="66.5" y="62" width="1" height="1" style="fill:rgb(63,63,127);stroke:rgb(63,63,127)stroke-width:5%" />
<rect x="66.5" y="63" width="1" height="1" style="fill:rgb(63,63,127);stroke:rgb(63,63,127)stroke-width:5%" />
<rect x="66.5" y="64" width="1" height="1" style="fill:rgb(63,63,127);stroke:rgb(63,63,127)stroke-width:5%" />
<rect x="66.5" y="65" width="1" height="1" style="fill:rgb(63,63,127);stroke:rgb(63,63,127)stroke-width:5%" />
<rect x="66.5" y="66" width="1" height="1" style="fill:rgb(63,63,127);stroke:rgb(63,63,127)stroke-width:5%" />
<rect x="66.5" y="67" width="1" height="1" style="fill:rgb(63,63,127);stroke:rgb(63,63,127)stroke-width:5%" />
<rect x="66.5" y="68" width="1" height="1" style="fill:rgb(63,63,127);stroke:rgb(63,63,127)stroke-width:5%" />
<rect x="66.5" y="69" width="1" height="1" style="fill:rgb(63,63,127);stroke:rgb(63,63,127)stroke-width:5%" />
<rect x="66.5" y="70" width="1" height="1" style="fill:rgb(63,63,127);stroke:rgb(63,63,127)stroke-width:5%" />
<rect x="66.5" y="71" width="1" height="1" style="fill:rgb(63,63,127);stroke:rgb(63,63,127)stroke-width:5%" />
<rect x="66.5" y="72" width="1" height="1" style="fill:rgb(63,63,127);stroke:rgb(63,63,127)stroke-width:5%" />
<rect x="66.5" y="73" width="1" height="1" style="fill:rgb(63,63,127);stroke:rgb(63,63,127)stroke-width:5%" />
<rect x="66.5" y="74" width="1" height="1" style="fill:rgb(63,63,127);stroke:rgb(63,63,127)stroke-width:5%" />
<rect x="66.5" y="75" width="1" height="1" style="fill:rgb(63,63,127);stroke:rgb(63,63,127)stroke-width:5%" />
<rect x="66.5" y="76" width="1" height="1" style="fill:rgb(63,63,127);stroke:rgb(63,63,127)stroke-width:5%" />
<rect x="66.5" y="77" width="1" height="1.0000076" style="fill:rgb(63,63,127);stroke:rgb(63,63,127)stroke-width:5%" />
<rect x="66.5" y="78" width="1" height="0.99999237" style="fill:rgb(63,63,127);stroke:rgb(63,63,127)stroke-width:5%" />
<rect x="66.5" y="79" width="1" height="1" style="fill:rgb(63,63,127);stroke:rgb(63,63,127)stroke-width:5%" />
<rect x="66.5" y="80" width="1" height="1" style="fill:rgb(63,63,127);stroke:rgb(63,63,127)stroke-width:5%" />
<rect x="66.5" y="81" width="1" height="1" style="fill:rgb(63,63,127);stroke:rgb(63,63,127)stroke-width:5%" />
<rect x="67.5" y="50" width="1" height="1" style="fill:rgb(63,63,127);stroke:rgb(63,63,127)stroke-width:5%" />
<rect x="67.5" y="51" width="1" height="0.99999619" style="fill:rgb(63,63,127);stroke:rgb(63,63,127)stroke-width:5%" />
<rect x="67.5" y="52" width="1" height="1.0000038" style="fill:rgb(63,63,127);stroke:rgb(63,63,127)stroke-width:5%" />
<rect x="67.5" y="53" width="1" height="1" style="fill:rgb(63,63,127);stroke:rgb(63,63,127)stroke-width:5%" />
<rect x="67.5" y="54" width="1" height="1.0000038" style="fill:rgb(63,63,127);stroke:rgb(63,63,127)stroke-width:5%" />
<rect x="67.5" y="55" width="1" height="0.99999619" style="fill:rgb(63,63,127);stroke:rgb(63,63,127)stroke-width:5%" />
<rect x="67.5" y="56" width="1" height="1" style="fill:rgb(63,63,127);stroke:rgb(63,63,127)stroke-width:5%" />
<rect x="67.5" y="57" width="1" height="1" style="fill:rgb(63,63,127);stroke:rgb(63,63,127)stroke-width:5%" />
<rect x="67.5" y="58" width="1" height="1" style="fill:rgb(63,63,127);stroke:rgb(63,63,127)stroke-width:5%" />
<rect x="67.5" y="59" width="1" height="0.99999619" style="fill:rgb(63,63,127);stroke:rgb(63,63,127)stroke-width:5%" />
<rect x="67.5" y="60" width="1" height="1.0000038" style="fill:rgb(63,63,127);stroke:rgb(63,63,127)stroke-width:5%" />
<rect x="67.5" y="61" width="1" height="1" style="fill:rgb(63,63,127);stroke:rgb(63,63,127)stroke-width:5%" />
<rect x="67.5" y="62" width="1" height="1" style="fill:rgb(63,63,127);stroke:rgb(63,63,127)stroke-width:5%" />
<rect x="67.5" y="63" width="1" height="1" style="fill:rgb(63,63,127);stroke:rgb(63,63,127)stroke-width:5%" />
<rect x="67.5" y="64" width="1" height="1" style="fill:rgb(63,63,127);stroke:rgb(63,63,127)stroke-width:5%" />
<rect x="67.5" y="65" width="1" height="1" style="fill:rgb(63,63,127);stroke:rgb(63,63,127)stroke-width:5%" />
<rect x="67.5" y="66" width="1" height="1" style="fill:rgb(63,63,127);stroke:rgb(63,63,127)stroke-width:5%" />
<rect x="67.5" y="67" width="1" height="1" style="fill:rgb(63,63,127);stroke:rgb(63,63,127)stroke-width:5%" />
<rect x="67.5" y="68" width="1" height="1" style="fill:rgb(63,63,127);stroke:rgb(63,63,127)stroke-width:5%" />
<rect x="67.5" y="69" width="1" height="1" style="fill:rgb(63,63,127);stroke:rgb(63,63,127)stroke-width:5%" />
<rect x="67.5" y="70" width="1" height="1" style="fill:rgb(63,63,127);stroke:rgb(63,63,127)stroke-width:5%" />
<rect x="67.5" y="71" width="1" height="1" style="fill:rgb(63,63,127);stroke:rgb(63,63,127)stroke-width:5%" />
<rect x="67.5" y="72" width="1" height="1" style="fill:rgb(63,63,127);stroke:rgb(63,63,127)stroke-width:5%" />
<rect x="67.5" y="73" width="1" height="1" style="fill:rgb(63,63,127);stroke:rgb(63,63,127)stroke-width:5%" />
<rect x="67.5" y="74" width="1" height="1" style="fill:rgb(63,63,127);stroke:rgb(63,63,127)stroke-width:5%" />
<rect x="67.5" y="75" width="1" height="1" style="fill:rgb(63,63,127);stroke:rgb(63,63,127)stroke-width:5%" />
<rect x="67.5" y="76" width="1" height="1" style="fill:rgb(63,63,127);stroke:rgb(63,63,127)stroke-width:5%" />
<rect x="67.5" y="77" width="1" height="1.0000076" style="fill:rgb(63,63,127);stroke:rgb(63,63,127)stroke-width:5%" />
<rect x="67.5" y="78" width="1" height="0.99999237" style="fill:rgb(63,63,127);stroke:rgb(63,63,127)stroke-width:5%" />
<rect x="67.5" y="79" width="1" height="1" style="fill:rgb(63,63,127);stroke:rgb(63,63,127)stroke-width:5%" />
<rect x="67.5" y="80" width="1" height="1" style="fill:rgb(63,63,127);stroke:rgb(63,63,127)stroke-width:5%" />
<rect x="67.5" y="81" width="1" height="1" style="fill:rgb(63,63,127);stroke:rgb(63,63,127)stroke-width:5%" />

</svg>